<svg width="130" height="130" viewBox="0 0 130 130" fill="none" xmlns="http://www.w3.org/2000/svg">
<g clip-path="url(#clip0_99_5873)">
<path d="M130 16.2461H0V128.191H130V16.2461Z" fill="#ACE2E4"/>
<path d="M130 16.2461H0V48.7461H130V16.2461Z" fill="#004D4D"/>
<path d="M14.4448 16.2461H30.6951V24.3711C30.6951 28.8585 27.0573 32.4963 22.5699 32.4963C18.0825 32.4963 14.4448 28.8585 14.4448 24.3711V16.2461Z" fill="#ACE2E4"/>
<path d="M30.6951 16.2502H14.4448V8.12511C14.4448 3.63775 18.0825 3.92299e-07 22.5699 0C27.0573 -3.92299e-07 30.6951 3.63773 30.6951 8.12511V16.2502Z" fill="#FF6F61"/>
<path d="M113.751 16.2502H97.501V8.12511C97.501 3.63775 101.139 3.92299e-07 105.626 0C110.113 -3.92299e-07 113.751 3.63773 113.751 8.12511V16.2502Z" fill="#FF6F61"/>
<path d="M97.5 16.2461H113.75V24.3711C113.75 28.8585 110.112 32.4963 105.625 32.4963C101.138 32.4963 97.5 28.8585 97.5 24.3711V16.2461Z" fill="#ACE2E4"/>
<path fill-rule="evenodd" clip-rule="evenodd" d="M73.0546 60.3576C75.6191 57.8456 79.7345 57.888 82.2465 60.4523L102.145 80.7652C104.62 83.2922 104.62 87.3352 102.145 89.8622L82.2465 110.175C79.7345 112.74 75.6191 112.782 73.0546 110.27C70.4902 107.758 70.4477 103.642 72.96 101.078L82.035 91.8137H32.5005C28.9108 91.8137 26.0005 88.9036 26.0005 85.3137C26.0005 81.724 28.9108 78.8137 32.5005 78.8137H82.035L72.96 69.5495C70.4477 66.985 70.4902 62.8696 73.0546 60.3576Z" fill="#FF6F61"/>
</g>
<defs>
<clipPath id="clip0_99_5873">
<rect width="130" height="130" rx="6" fill="white"/>
</clipPath>
</defs>
</svg>
