<svg width="311" height="311" viewBox="0 0 311 311" fill="none" xmlns="http://www.w3.org/2000/svg">
<path d="M7.8115 236.572C18.6817 248.129 25.6752 253.211 30.9963 255.433C33.6569 256.562 35.7092 256.675 37.9517 257.127C40.1942 257.578 42.2466 257.691 44.2991 257.804C52.5087 258.256 58.0959 254.341 63.0749 249.447C68.32 244.929 72.0067 237.852 74.7813 229.194C77.5939 220.61 80.5585 212.328 85.1575 206.757C89.6424 201.035 94.8495 196.48 100.589 192.79C106.328 189.101 112.143 185.6 117.426 181.158C127.004 173.064 136.582 165.008 145.894 156.5C146.008 169.074 146.654 181.497 147.262 193.957C147.604 200.809 149.049 207.397 150.265 214.06C151.481 220.723 151.709 227.612 150.569 234.765C149.581 241.918 145.552 249.71 141.181 257.616C136.734 265.522 134.036 273.051 134.302 279.94C134.112 286.904 135.062 293.605 141.029 299.214C142.511 300.607 143.994 302 145.894 303.318C147.756 304.635 149.277 306.028 151.899 307.195C157.182 309.492 165.696 311.073 181.659 310.997L185.422 310.169C199.865 303.506 206.897 298.461 210.697 294.17C212.598 292.024 213.358 290.104 214.46 288.147C215.6 286.151 216.361 284.269 217.083 282.387C220.047 274.82 218.033 268.307 214.84 262.096C212.142 255.771 206.44 250.087 199.029 244.817C191.655 239.508 184.624 234.163 180.671 228.102C176.566 222.079 173.792 215.792 172.043 209.241C170.257 202.691 168.737 196.141 166.076 189.779C161.287 178.259 156.498 166.74 151.177 155.333C163.264 159.098 175.426 162.335 187.551 165.61C194.24 167.38 201.043 168.095 207.809 168.998C214.574 169.902 221.264 171.822 227.801 175.097C234.376 178.222 240.61 184.433 246.843 191.021C253.076 197.647 259.461 202.541 266.151 204.385C272.802 206.719 279.53 207.886 286.751 204.009C288.537 203.068 290.362 202.089 292.224 200.696C294.049 199.341 295.873 198.362 297.773 196.216C301.612 191.962 305.755 184.395 310.62 169.375L311 165.573C309.062 149.874 306.401 141.705 303.436 136.811C301.954 134.364 300.358 133.047 298.8 131.39C297.241 129.696 295.645 128.416 294.049 127.137C287.663 122.017 280.822 121.904 273.866 122.958C266.949 123.56 259.765 127.174 252.392 132.52C245.018 137.828 237.721 142.797 230.69 144.642C223.658 146.675 216.741 147.315 209.899 146.938C203.096 146.599 196.292 145.997 189.375 146.524C176.832 147.503 164.29 148.444 151.671 149.912C159.045 139.672 165.886 129.245 172.804 118.817C176.566 113.057 179.341 106.883 182.306 100.785C185.27 94.6861 189.185 89.0016 194.354 83.8442C199.371 78.6491 207.277 74.6586 215.524 70.8188C223.81 67.0166 230.461 62.4991 234.338 56.777C238.633 51.2431 241.826 45.2575 240.343 37.2766C239.963 35.2814 239.583 33.2862 238.861 31.1027C238.139 28.9569 237.759 26.9241 236.277 24.4771C233.35 19.5456 227.421 13.2964 214.46 4.07323L210.925 2.56741C195.266 -0.444238 186.6 -0.481883 180.975 0.798066C178.163 1.43804 176.414 2.52976 174.324 3.4709C172.233 4.41204 170.485 5.50376 168.775 6.63313C161.895 11.0377 159.653 17.475 158.551 24.3265C156.992 31.0274 158.209 38.933 161.097 47.5162C163.91 56.0994 166.418 64.532 166.038 71.7223C165.81 78.9879 164.29 85.6888 161.819 92.0132C159.387 98.3377 156.726 104.549 155.092 111.212C152.127 123.334 149.163 135.456 146.692 147.766C139.129 137.677 131.223 127.965 123.355 118.252C119.022 112.907 113.929 108.389 108.988 103.721C104.047 99.053 99.7905 93.5944 96.4458 87.157C92.9871 80.8325 91.6188 72.1364 90.4786 63.1767C89.3763 54.1795 87.0959 46.5374 82.801 41.1165C78.8102 35.3567 74.0592 30.5004 65.9255 29.4087C63.9111 29.1452 61.8587 28.8816 59.5402 28.9193C57.2598 28.9193 55.2073 28.6934 52.3947 29.2957C46.7696 30.5004 38.94 34.1897 26.0553 43.5634L23.5088 46.4245C15.7552 60.2404 13.0566 68.4095 12.5625 74.094C12.2964 76.955 12.8286 78.9126 13.0946 81.1713C13.3607 83.4301 13.8548 85.4253 14.3869 87.3828C16.4773 95.2508 21.9884 99.3165 28.2217 102.516C34.1509 106.055 42.1326 107.335 51.2544 107.297C60.3763 107.297 69.2322 107.561 75.9976 110.121C82.915 112.605 88.8822 116.069 94.1653 120.36C99.4864 124.614 104.655 129.056 110.547 132.633C121.265 139.145 131.983 145.696 143.043 151.832C131.033 155.822 119.251 160.265 107.506 164.707C101.045 167.154 95.1536 170.542 89.1103 173.742C83.1051 176.942 76.5677 179.276 69.3082 180.443C62.1627 181.723 53.383 180.367 44.4511 178.673C35.4813 176.942 27.4236 176.716 20.9242 179.087C14.1589 181.083 8.03952 184.057 4.46679 191.397C3.59261 193.242 2.68044 195.087 1.9963 197.233C1.31216 199.378 0.438016 201.261 0.133953 204.084C-0.436164 209.769 0.704039 218.276 5.68307 233.297L7.65943 236.572H7.8115Z" fill="#FF6F61" fill-opacity="0.07"/>
</svg>
