<svg width="25" height="25" viewBox="0 0 25 25" fill="none" xmlns="http://www.w3.org/2000/svg">
<path d="M0.627934 19.0171C1.50175 19.9461 2.06392 20.3546 2.49166 20.5332C2.70553 20.6239 2.87052 20.633 3.05078 20.6693C3.23104 20.7057 3.39603 20.7147 3.56102 20.7238C4.22096 20.7601 4.67009 20.4454 5.07033 20.052C5.49196 19.6889 5.78832 19.1199 6.01136 18.4239C6.23745 17.734 6.47577 17.0682 6.84546 16.6203C7.20598 16.1604 7.62456 15.7942 8.0859 15.4976C8.54725 15.2011 9.01471 14.9196 9.4394 14.5625C10.2093 13.9119 10.9793 13.2643 11.7278 12.5804C11.737 13.5911 11.7889 14.5898 11.8378 15.5914C11.8653 16.1422 11.9814 16.6718 12.0792 17.2074C12.1769 17.743 12.1953 18.2968 12.1036 18.8718C12.0242 19.4468 11.7003 20.0732 11.349 20.7087C10.9915 21.3442 10.7746 21.9494 10.7959 22.5032C10.7807 23.063 10.8571 23.6017 11.3367 24.0526C11.4559 24.1646 11.5751 24.2765 11.7278 24.3825C11.8775 24.4884 11.9997 24.6003 12.2105 24.6941C12.6352 24.8787 13.3196 25.0058 14.6028 24.9998L14.9053 24.9332C16.0663 24.3976 16.6316 23.9921 16.9371 23.6471C17.0899 23.4746 17.151 23.3203 17.2396 23.1629C17.3312 23.0025 17.3923 22.8512 17.4504 22.6999C17.6887 22.0916 17.5268 21.5681 17.2701 21.0688C17.0532 20.5604 16.5949 20.1034 15.9991 19.6798C15.4064 19.2531 14.8412 18.8234 14.5234 18.3362C14.1934 17.852 13.9704 17.3466 13.8299 16.8201C13.6863 16.2935 13.564 15.7669 13.3502 15.2555C12.9652 14.3295 12.5802 13.4035 12.1525 12.4866C13.1241 12.7892 14.1018 13.0494 15.0764 13.3127C15.6141 13.455 16.161 13.5125 16.7049 13.5851C17.2487 13.6577 17.7865 13.812 18.312 14.0753C18.8405 14.3265 19.3416 14.8258 19.8427 15.3554C20.3437 15.888 20.857 16.2814 21.3948 16.4297C21.9294 16.6173 22.4702 16.7111 23.0507 16.3994C23.1943 16.3238 23.341 16.2451 23.4907 16.1331C23.6373 16.0242 23.784 15.9455 23.9368 15.773C24.2453 15.431 24.5784 14.8228 24.9695 13.6153L25 13.3097C24.8442 12.0478 24.6303 11.3911 24.392 10.9977C24.2728 10.801 24.1445 10.6951 24.0193 10.5619C23.894 10.4258 23.7657 10.3229 23.6373 10.22C23.1241 9.80842 22.5741 9.79934 22.015 9.88407C21.4589 9.93249 20.8815 10.223 20.2887 10.6527C19.696 11.0794 19.1094 11.4789 18.5442 11.6271C17.9789 11.7906 17.4229 11.842 16.8729 11.8117C16.326 11.7845 15.7791 11.7361 15.2231 11.7785C14.2148 11.8571 13.2066 11.9328 12.1922 12.0508C12.7849 11.2277 13.3349 10.3894 13.891 9.5512C14.1934 9.08819 14.4165 8.5919 14.6548 8.10166C14.8931 7.61142 15.2078 7.15447 15.6233 6.73988C16.0266 6.32227 16.6621 6.0015 17.3251 5.69283C17.9912 5.38719 18.5258 5.02405 18.8375 4.56407C19.1827 4.11922 19.4394 3.63806 19.3202 2.99651C19.2897 2.83612 19.2591 2.67574 19.2011 2.50022C19.143 2.32773 19.1125 2.16432 18.9933 1.96761C18.758 1.57119 18.2814 1.06884 17.2396 0.32743L16.9554 0.206383C15.6966 -0.0357104 15 -0.0387366 14.5478 0.0641532C14.3218 0.115598 14.1812 0.203357 14.0132 0.279011C13.8451 0.354665 13.7046 0.442424 13.5671 0.53321C13.0141 0.887271 12.8338 1.40475 12.7452 1.95551C12.62 2.49417 12.7177 3.12966 12.9499 3.81963C13.176 4.5096 13.3777 5.18746 13.3471 5.76546C13.3288 6.34951 13.2066 6.88817 13.008 7.39656C12.8124 7.90496 12.5986 8.40428 12.4672 8.93991C12.2289 9.91434 11.9906 10.8888 11.792 11.8783C11.184 11.0673 10.5485 10.2866 9.91602 9.5058C9.56772 9.07609 9.15831 8.71295 8.76112 8.3377C8.36393 7.96246 8.02174 7.52366 7.75288 7.00619C7.47485 6.49779 7.36485 5.79874 7.2732 5.07852C7.18459 4.35526 7.00128 3.74095 6.65603 3.30518C6.33522 2.84218 5.95331 2.4518 5.29948 2.36404C5.13755 2.34286 4.97256 2.32168 4.78619 2.3247C4.60287 2.3247 4.43789 2.30655 4.2118 2.35496C3.75961 2.4518 3.13022 2.74837 2.09448 3.50188L1.88977 3.73187C1.26649 4.84248 1.04956 5.49915 1.00985 5.95611C0.988458 6.18609 1.03124 6.34346 1.05262 6.52503C1.07401 6.7066 1.11373 6.86698 1.1565 7.02434C1.32454 7.65681 1.76756 7.98364 2.26862 8.24086C2.74525 8.52532 3.38686 8.62821 4.12013 8.62519C4.8534 8.62519 5.56529 8.64637 6.10913 8.85215C6.66519 9.05188 7.14487 9.33029 7.56956 9.67527C7.9973 10.0172 8.41282 10.3743 8.88639 10.6618C9.74798 11.1853 10.6096 11.7119 11.4987 12.2051C10.5332 12.5259 9.58605 12.883 8.64197 13.2401C8.12257 13.4368 7.649 13.7092 7.16321 13.9664C6.68047 14.2236 6.15496 14.4112 5.57139 14.505C4.997 14.6079 4.29123 14.499 3.57324 14.3628C2.85219 14.2236 2.20447 14.2054 1.68201 14.3961C1.13817 14.5565 0.646264 14.7955 0.359066 15.3856C0.288795 15.5339 0.21547 15.6822 0.160474 15.8547C0.105479 16.0272 0.0352103 16.1785 0.010768 16.4055C-0.0350614 16.8624 0.0565948 17.5463 0.456838 18.7538L0.61571 19.0171H0.627934Z" fill="#FF6F61"/>
</svg>
