<svg width="157" height="376" viewBox="0 0 157 376" fill="none" xmlns="http://www.w3.org/2000/svg">
<path d="M40.7347 56.9581C44.4318 68.2729 55.4503 74.82 60.4975 76.6792C61.8757 83.5325 63.4461 95.8586 58.7022 90.3359C53.9584 84.8132 37.1908 76.4296 29.4 72.9282C2.24532 63.9085 0.298131 89.575 9.02814 99.6013C16.0121 107.622 44.2993 108.941 57.5699 108.598L48.7246 145.13C50.7012 147.431 52.876 150.456 45.7623 144.146C36.8702 136.259 0.652246 113.265 -8.20868 134.991C-15.2974 152.371 -4.79935 162.685 3.1002 165.309C21.0464 171.27 34.3286 170.317 41.3448 167.348C38.8343 178.757 33.3844 200.556 31.6691 196.477C29.525 191.38 16.0237 180.865 -4.21893 174.141C-20.413 168.762 -35.0578 174.563 -34.8106 182.07C-25.3934 219.735 17.5396 214.26 21.9831 215.736C25.5379 216.917 12.8488 238.284 6.05997 248.821C5.28942 246.189 0.093757 238.726 -14.5246 229.923C-32.7975 218.92 -49.2561 225.981 -51.0322 244.11C-52.4082 258.155 -22.8203 267.551 -6.09134 270.55L-52.0794 342.985L-33.9826 342.966L5.75798 274.486C18.9419 295.859 37.2044 296.991 40.8244 297.645C44.4445 298.299 63.5269 296.963 57.2517 274.596C50.9764 252.228 8.03827 252.767 13.4657 251.281C17.8077 250.091 27.8652 229.385 32.3512 219.18C68.9022 246.122 88.4645 231.788 95.532 225.365C102.599 218.941 88.9287 203.985 76.7514 201.036C67.0096 198.678 47.5747 198.654 39.075 198.937L48.7507 169.808C52.3178 172.272 64.2239 178.017 83.3112 181.287C102.399 184.558 108.366 175.174 108.964 170.073C110.329 164.314 108.583 151.746 90.6788 147.554C72.775 143.361 59.2027 148.793 54.6545 152.034L65.4642 106.287C92.9884 122.446 105.339 113.319 108.074 106.735C110.812 102.894 113.916 92.7782 104.43 83.0489C94.9436 73.3195 76.46 80.8849 68.4039 85.8837L67.2403 74.5333C73.8751 73.8134 88.0615 68.2926 91.7294 51.9687C96.3143 31.5639 80.5048 16.4451 64.5434 13.3361C51.7743 10.849 44.0973 21.5287 41.8549 27.1795C36.0725 35.3456 38.6988 50.4344 40.7347 56.9581Z" fill="#87CEEB" fill-opacity="0.32"/>
</svg>
