<svg width="40" height="40" viewBox="0 0 40 40" fill="none" xmlns="http://www.w3.org/2000/svg">
<path d="M26.9844 22.9242L32.9864 27.3783C34.4532 28.4701 35.0541 30.3853 34.4408 32.0252L33.7805 33.7938L32.0194 34.457C30.3863 35.0728 28.4793 34.4694 27.3921 32.9964L22.9569 26.9688L24.0575 34.3826C24.3305 36.1974 23.4039 37.9795 21.8102 38.7024L20.103 39.4796L18.3959 38.7024C16.8022 37.9795 15.8756 36.1974 16.1485 34.3826L17.2492 26.9688L12.8139 32.9964C11.7268 34.4694 9.81969 35.0728 8.18667 34.457L6.42558 33.7938L5.7652 32.0252C5.15197 30.3853 5.75283 28.4701 7.21963 27.3783L13.2216 22.9242L5.8393 24.0295C4.03219 24.3036 2.25767 23.3731 1.53774 21.7726L0.763916 20.0581L1.53774 18.3437C2.25767 16.7432 4.03219 15.8127 5.8393 16.0868L13.2216 17.1921L7.21963 12.738C5.75283 11.6462 5.15197 9.73102 5.7652 8.09105L6.42558 6.3225L8.18667 5.65927C9.81969 5.04344 11.7268 5.64688 12.8139 7.11993L17.2492 13.1475L16.1485 5.73373C15.8756 3.91892 16.8022 2.13683 18.3959 1.41384L20.103 0.636719L21.8102 1.41384C23.4039 2.13683 24.3305 3.91892 24.0575 5.73373L22.9569 13.1475L27.3921 7.11993C28.4793 5.64688 30.3863 5.04344 32.0194 5.65927L33.7805 6.3225L34.4408 8.09105C35.0541 9.73102 34.4532 11.6462 32.9864 12.738L26.9844 17.1921L34.3667 16.0868C36.1738 15.8127 37.9484 16.7432 38.6683 18.3437L39.4421 20.0581L38.6683 21.7726C37.9484 23.3731 36.1738 24.3036 34.3667 24.0295L26.9844 22.9242Z" fill="#FF6F61"/>
</svg>
