<svg width="141" height="138" viewBox="0 0 141 138" fill="none" xmlns="http://www.w3.org/2000/svg">
<path d="M131.673 71.2848C131.673 84.2234 127.855 96.8714 120.7 107.629C113.535 118.387 103.359 126.772 91.4655 131.724C79.5604 136.675 66.4648 137.97 53.8184 135.447C41.1833 132.923 29.5813 126.692 20.4728 117.543C11.3642 108.394 5.15331 96.7373 2.63751 84.0473C0.132938 71.3573 1.42459 58.2039 6.34388 46.2502C11.2744 34.2965 19.6305 24.0795 30.3451 16.8913C41.0485 9.7029 53.6499 5.86621 66.5322 5.86621" stroke="#004D4D" stroke-width="2"/>
<path d="M77.7631 59.8584L56.4912 81.2164" stroke="#004D4D" stroke-width="3.1515" stroke-miterlimit="10"/>
<path d="M79.01 76.1895V58.6084H61.5005" stroke="#004D4D" stroke-width="3.1515" stroke-miterlimit="10"/>
<mask id="path-4-inside-1_274_1145" fill="white">
<path d="M108.582 5.92232C108.425 5.43631 108.222 5.00116 107.964 4.61654C107.706 4.22674 107.403 3.89559 107.043 3.62331C106.684 3.34562 106.279 3.13459 105.819 2.99044C105.37 2.84618 104.876 2.77411 104.336 2.77411C103.416 2.77411 102.584 3.01176 101.843 3.48706C101.102 3.96236 100.518 4.65929 100.091 5.57786C99.6642 6.49113 99.4509 7.6099 99.4509 8.9344C99.4509 10.2641 99.6642 11.3883 100.091 12.3068C100.529 13.2254 101.113 13.9223 101.866 14.3976C102.618 14.8729 103.472 15.1106 104.426 15.1106C105.314 15.1106 106.089 14.929 106.751 14.5659C107.414 14.2027 107.931 13.6901 108.29 13.0278C108.661 12.3603 108.84 11.5753 108.84 10.6727L109.48 10.7929H104.808V8.7501H111.221V10.6166C111.221 11.9944 110.929 13.1907 110.345 14.2054C109.772 15.2148 108.964 15.9944 107.942 16.5445C106.92 17.0946 105.752 17.3697 104.426 17.3697C102.955 17.3697 101.652 17.0278 100.54 16.3443C99.4284 15.6607 98.5523 14.6913 97.9346 13.4363C97.3169 12.176 97.0024 10.6807 97.0024 8.95041C97.0024 7.64193 97.1821 6.4671 97.5415 5.4257C97.9009 4.38431 98.4175 3.50048 99.069 2.77411C99.7316 2.04244 100.495 1.48446 101.394 1.09984C102.281 0.710039 103.258 0.515137 104.314 0.515137C105.201 0.515137 106.021 0.645973 106.785 0.907648C107.549 1.16932 108.222 1.54052 108.818 2.02112C109.424 2.50172 109.918 3.07323 110.311 3.73542C110.705 4.39232 110.974 5.12128 111.109 5.92232H108.582ZM118.319 17.3937C117.106 17.3937 116.073 17.1346 115.197 16.6166C114.332 16.0932 113.658 15.359 113.187 14.4137C112.726 13.4631 112.49 12.3496 112.49 11.0732C112.49 9.81293 112.726 8.70205 113.187 7.74073C113.658 6.77953 114.321 6.02914 115.163 5.48977C116.017 4.95041 117.016 4.68072 118.151 4.68072C118.847 4.68072 119.51 4.79554 120.161 5.02518C120.813 5.25483 121.397 5.61531 121.913 6.10662C122.43 6.59794 122.834 7.23611 123.126 8.02113C123.43 8.80085 123.576 9.74875 123.576 10.8649V11.7141H113.838V9.91974H121.239C121.239 9.28946 121.116 8.73137 120.858 8.24547C120.599 7.75416 120.24 7.36695 119.779 7.08384C119.319 6.80085 118.78 6.6593 118.162 6.6593C117.499 6.6593 116.915 6.82487 116.41 7.15603C115.916 7.48177 115.534 7.90902 115.264 8.43767C114.995 8.96102 114.86 9.52982 114.86 10.144V11.5458C114.86 12.3683 115.006 13.0678 115.298 13.6446C115.59 14.2215 115.994 14.662 116.511 14.9664C117.039 15.2655 117.645 15.415 118.342 15.415C118.791 15.415 119.207 15.3509 119.577 15.2228C119.948 15.0893 120.274 14.8917 120.543 14.63C120.813 14.3683 121.026 14.0452 121.172 13.6607L123.43 14.0692C123.239 14.7368 122.924 15.3215 122.453 15.8235C121.992 16.3203 121.408 16.7074 120.7 16.9852C120.004 17.2574 119.218 17.3937 118.319 17.3937ZM130.82 4.84089V6.76351H124.126V4.84089H130.82ZM125.923 1.89299H128.304V13.5325C128.304 13.9971 128.371 14.3469 128.517 14.5819C128.652 14.8116 128.832 14.969 129.045 15.0545C129.27 15.1346 129.517 15.1747 129.775 15.1747C129.966 15.1747 130.135 15.1613 130.281 15.1346C130.415 15.108 130.528 15.0866 130.606 15.0705L131.044 17.0492C130.898 17.1026 130.707 17.1561 130.449 17.2094C130.191 17.2682 129.876 17.3002 129.495 17.3055C128.866 17.3162 128.281 17.2041 127.742 16.9692C127.192 16.7341 126.754 16.3709 126.428 15.8796C126.091 15.3883 125.923 14.7715 125.923 14.0292V1.89299ZM97.5303 39.7035V23.2975H99.99V30.4271H108.133V23.2975H110.615V39.7035H108.133V32.5499H99.99V39.7035H97.5303ZM118.162 39.9518C116.96 39.9518 115.916 39.6928 115.051 39.1747C114.175 38.6514 113.512 37.9171 113.041 36.9718C112.569 36.0212 112.333 34.9077 112.333 33.6314C112.333 32.3711 112.569 31.2602 113.041 30.2989C113.512 29.3377 114.164 28.5873 115.017 28.0479C115.871 27.5085 116.859 27.2389 117.994 27.2389C118.69 27.2389 119.364 27.3537 120.004 27.5833C120.655 27.813 121.24 28.1734 121.756 28.6648C122.273 29.1561 122.677 29.7942 122.98 30.5793C123.272 31.359 123.418 32.3069 123.418 33.4231V34.2723H113.681V32.4779H121.082C121.082 31.8476 120.959 31.2895 120.7 30.8036C120.442 30.3123 120.083 29.9251 119.622 29.642C119.173 29.359 118.634 29.2174 118.016 29.2174C117.342 29.2174 116.758 29.383 116.264 29.7142C115.77 30.0399 115.377 30.4672 115.107 30.9958C114.849 31.5192 114.714 32.088 114.714 32.7021V34.104C114.714 34.9265 114.86 35.626 115.141 36.2028C115.433 36.7796 115.837 37.2202 116.365 37.5246C116.882 37.8236 117.488 37.9732 118.185 37.9732C118.645 37.9732 119.049 37.9091 119.431 37.781C119.802 37.6474 120.116 37.4498 120.386 37.1881C120.667 36.9265 120.869 36.6033 121.015 36.2188L123.272 36.6273C123.093 37.2949 122.767 37.8796 122.295 38.3817C121.835 38.8784 121.251 39.2655 120.554 39.5433C119.858 39.8156 119.061 39.9518 118.162 39.9518ZM127.327 23.2975V39.7035H124.946V23.2975H127.327ZM129.416 44.3176V27.399H131.741V29.3937H131.943C132.078 29.1374 132.28 28.8409 132.538 28.5045C132.808 28.168 133.167 27.8743 133.628 27.6234C134.088 27.367 134.706 27.2389 135.458 27.2389C136.447 27.2389 137.334 27.4898 138.109 27.9919C138.884 28.4939 139.49 29.2174 139.94 30.1627C140.389 31.108 140.602 32.2455 140.602 33.5753C140.602 34.905 140.389 36.0452 139.951 36.9958C139.502 37.9411 138.895 38.6701 138.131 39.1828C137.356 39.6902 136.48 39.9438 135.481 39.9438C134.739 39.9438 134.133 39.8183 133.661 39.5673C133.19 39.3163 132.83 39.0226 132.561 38.6861C132.291 38.3496 132.089 38.0506 131.943 37.789H131.797V44.3176H129.416ZM131.752 33.5513C131.752 34.4164 131.876 35.1747 132.123 35.8263C132.381 36.4779 132.74 36.9878 133.212 37.3563C133.684 37.7195 134.268 37.9011 134.953 37.9011C135.66 37.9011 136.256 37.7115 136.739 37.3323C137.222 36.9478 137.581 36.4271 137.828 35.7702C138.075 35.1133 138.199 34.3737 138.199 33.5513C138.199 32.7396 138.075 32.0106 137.828 31.3643C137.592 30.7181 137.233 30.2081 136.75 29.8343C136.267 29.4605 135.672 29.2735 134.953 29.2735C134.257 29.2735 133.672 29.4525 133.201 29.8103C132.729 30.168 132.37 30.6674 132.123 31.3082C131.876 31.9491 131.752 32.6968 131.752 33.5513Z"/>
</mask>
<path d="M108.582 5.92232C108.425 5.43631 108.222 5.00116 107.964 4.61654C107.706 4.22674 107.403 3.89559 107.043 3.62331C106.684 3.34562 106.279 3.13459 105.819 2.99044C105.37 2.84618 104.876 2.77411 104.336 2.77411C103.416 2.77411 102.584 3.01176 101.843 3.48706C101.102 3.96236 100.518 4.65929 100.091 5.57786C99.6642 6.49113 99.4509 7.6099 99.4509 8.9344C99.4509 10.2641 99.6642 11.3883 100.091 12.3068C100.529 13.2254 101.113 13.9223 101.866 14.3976C102.618 14.8729 103.472 15.1106 104.426 15.1106C105.314 15.1106 106.089 14.929 106.751 14.5659C107.414 14.2027 107.931 13.6901 108.29 13.0278C108.661 12.3603 108.84 11.5753 108.84 10.6727L109.48 10.7929H104.808V8.7501H111.221V10.6166C111.221 11.9944 110.929 13.1907 110.345 14.2054C109.772 15.2148 108.964 15.9944 107.942 16.5445C106.92 17.0946 105.752 17.3697 104.426 17.3697C102.955 17.3697 101.652 17.0278 100.54 16.3443C99.4284 15.6607 98.5523 14.6913 97.9346 13.4363C97.3169 12.176 97.0024 10.6807 97.0024 8.95041C97.0024 7.64193 97.1821 6.4671 97.5415 5.4257C97.9009 4.38431 98.4175 3.50048 99.069 2.77411C99.7316 2.04244 100.495 1.48446 101.394 1.09984C102.281 0.710039 103.258 0.515137 104.314 0.515137C105.201 0.515137 106.021 0.645973 106.785 0.907648C107.549 1.16932 108.222 1.54052 108.818 2.02112C109.424 2.50172 109.918 3.07323 110.311 3.73542C110.705 4.39232 110.974 5.12128 111.109 5.92232H108.582ZM118.319 17.3937C117.106 17.3937 116.073 17.1346 115.197 16.6166C114.332 16.0932 113.658 15.359 113.187 14.4137C112.726 13.4631 112.49 12.3496 112.49 11.0732C112.49 9.81293 112.726 8.70205 113.187 7.74073C113.658 6.77953 114.321 6.02914 115.163 5.48977C116.017 4.95041 117.016 4.68072 118.151 4.68072C118.847 4.68072 119.51 4.79554 120.161 5.02518C120.813 5.25483 121.397 5.61531 121.913 6.10662C122.43 6.59794 122.834 7.23611 123.126 8.02113C123.43 8.80085 123.576 9.74875 123.576 10.8649V11.7141H113.838V9.91974H121.239C121.239 9.28946 121.116 8.73137 120.858 8.24547C120.599 7.75416 120.24 7.36695 119.779 7.08384C119.319 6.80085 118.78 6.6593 118.162 6.6593C117.499 6.6593 116.915 6.82487 116.41 7.15603C115.916 7.48177 115.534 7.90902 115.264 8.43767C114.995 8.96102 114.86 9.52982 114.86 10.144V11.5458C114.86 12.3683 115.006 13.0678 115.298 13.6446C115.59 14.2215 115.994 14.662 116.511 14.9664C117.039 15.2655 117.645 15.415 118.342 15.415C118.791 15.415 119.207 15.3509 119.577 15.2228C119.948 15.0893 120.274 14.8917 120.543 14.63C120.813 14.3683 121.026 14.0452 121.172 13.6607L123.43 14.0692C123.239 14.7368 122.924 15.3215 122.453 15.8235C121.992 16.3203 121.408 16.7074 120.7 16.9852C120.004 17.2574 119.218 17.3937 118.319 17.3937ZM130.82 4.84089V6.76351H124.126V4.84089H130.82ZM125.923 1.89299H128.304V13.5325C128.304 13.9971 128.371 14.3469 128.517 14.5819C128.652 14.8116 128.832 14.969 129.045 15.0545C129.27 15.1346 129.517 15.1747 129.775 15.1747C129.966 15.1747 130.135 15.1613 130.281 15.1346C130.415 15.108 130.528 15.0866 130.606 15.0705L131.044 17.0492C130.898 17.1026 130.707 17.1561 130.449 17.2094C130.191 17.2682 129.876 17.3002 129.495 17.3055C128.866 17.3162 128.281 17.2041 127.742 16.9692C127.192 16.7341 126.754 16.3709 126.428 15.8796C126.091 15.3883 125.923 14.7715 125.923 14.0292V1.89299ZM97.5303 39.7035V23.2975H99.99V30.4271H108.133V23.2975H110.615V39.7035H108.133V32.5499H99.99V39.7035H97.5303ZM118.162 39.9518C116.96 39.9518 115.916 39.6928 115.051 39.1747C114.175 38.6514 113.512 37.9171 113.041 36.9718C112.569 36.0212 112.333 34.9077 112.333 33.6314C112.333 32.3711 112.569 31.2602 113.041 30.2989C113.512 29.3377 114.164 28.5873 115.017 28.0479C115.871 27.5085 116.859 27.2389 117.994 27.2389C118.69 27.2389 119.364 27.3537 120.004 27.5833C120.655 27.813 121.24 28.1734 121.756 28.6648C122.273 29.1561 122.677 29.7942 122.98 30.5793C123.272 31.359 123.418 32.3069 123.418 33.4231V34.2723H113.681V32.4779H121.082C121.082 31.8476 120.959 31.2895 120.7 30.8036C120.442 30.3123 120.083 29.9251 119.622 29.642C119.173 29.359 118.634 29.2174 118.016 29.2174C117.342 29.2174 116.758 29.383 116.264 29.7142C115.77 30.0399 115.377 30.4672 115.107 30.9958C114.849 31.5192 114.714 32.088 114.714 32.7021V34.104C114.714 34.9265 114.86 35.626 115.141 36.2028C115.433 36.7796 115.837 37.2202 116.365 37.5246C116.882 37.8236 117.488 37.9732 118.185 37.9732C118.645 37.9732 119.049 37.9091 119.431 37.781C119.802 37.6474 120.116 37.4498 120.386 37.1881C120.667 36.9265 120.869 36.6033 121.015 36.2188L123.272 36.6273C123.093 37.2949 122.767 37.8796 122.295 38.3817C121.835 38.8784 121.251 39.2655 120.554 39.5433C119.858 39.8156 119.061 39.9518 118.162 39.9518ZM127.327 23.2975V39.7035H124.946V23.2975H127.327ZM129.416 44.3176V27.399H131.741V29.3937H131.943C132.078 29.1374 132.28 28.8409 132.538 28.5045C132.808 28.168 133.167 27.8743 133.628 27.6234C134.088 27.367 134.706 27.2389 135.458 27.2389C136.447 27.2389 137.334 27.4898 138.109 27.9919C138.884 28.4939 139.49 29.2174 139.94 30.1627C140.389 31.108 140.602 32.2455 140.602 33.5753C140.602 34.905 140.389 36.0452 139.951 36.9958C139.502 37.9411 138.895 38.6701 138.131 39.1828C137.356 39.6902 136.48 39.9438 135.481 39.9438C134.739 39.9438 134.133 39.8183 133.661 39.5673C133.19 39.3163 132.83 39.0226 132.561 38.6861C132.291 38.3496 132.089 38.0506 131.943 37.789H131.797V44.3176H129.416ZM131.752 33.5513C131.752 34.4164 131.876 35.1747 132.123 35.8263C132.381 36.4779 132.74 36.9878 133.212 37.3563C133.684 37.7195 134.268 37.9011 134.953 37.9011C135.66 37.9011 136.256 37.7115 136.739 37.3323C137.222 36.9478 137.581 36.4271 137.828 35.7702C138.075 35.1133 138.199 34.3737 138.199 33.5513C138.199 32.7396 138.075 32.0106 137.828 31.3643C137.592 30.7181 137.233 30.2081 136.75 29.8343C136.267 29.4605 135.672 29.2735 134.953 29.2735C134.257 29.2735 133.672 29.4525 133.201 29.8103C132.729 30.168 132.37 30.6674 132.123 31.3082C131.876 31.9491 131.752 32.6968 131.752 33.5513Z" fill="#020202" stroke="#004D4D" stroke-width="2" mask="url(#path-4-inside-1_274_1145)"/>
</svg>
