<svg width="16" height="17" viewBox="0 0 16 17" fill="none" xmlns="http://www.w3.org/2000/svg">
<path d="M10.58 9.57L12.83 11.2325C13.38 11.64 13.605 12.355 13.375 12.9675L13.1275 13.6275L12.4675 13.875C11.855 14.105 11.14 13.88 10.7325 13.33L9.07 11.08L9.4825 13.8475C9.585 14.525 9.2375 15.19 8.64 15.46L8 15.75L7.36 15.46C6.7625 15.19 6.415 14.525 6.5175 13.8475L6.93 11.08L5.2675 13.33C4.86 13.88 4.145 14.105 3.5325 13.875L2.8725 13.6275L2.625 12.9675C2.395 12.355 2.62 11.64 3.17 11.2325L5.42 9.57L2.6525 9.9825C1.975 10.085 1.31 9.7375 1.04 9.14L0.75 8.5L1.04 7.86C1.31 7.2625 1.975 6.915 2.6525 7.0175L5.42 7.43L3.17 5.7675C2.62 5.36 2.395 4.645 2.625 4.0325L2.8725 3.3725L3.5325 3.125C4.145 2.895 4.86 3.12 5.2675 3.67L6.93 5.92L6.5175 3.1525C6.415 2.475 6.7625 1.81 7.36 1.54L8 1.25L8.64 1.54C9.2375 1.81 9.585 2.475 9.4825 3.1525L9.07 5.92L10.7325 3.67C11.14 3.12 11.855 2.895 12.4675 3.125L13.1275 3.3725L13.375 4.0325C13.605 4.645 13.38 5.36 12.83 5.7675L10.58 7.43L13.3475 7.0175C14.025 6.915 14.69 7.2625 14.96 7.86L15.25 8.5L14.96 9.14C14.69 9.7375 14.025 10.085 13.3475 9.9825L10.58 9.57Z" fill="#C2EFDC"/>
<path d="M8.5 6.5C8.5 6.775 8 7.25 8 7.25C8 7.25 7.5 6.775 7.5 6.5C7.5 6.225 8 4.25 8 4.25C8 4.25 8.5 6.225 8.5 6.5Z" fill="#C2EFDC"/>
<path d="M6.94012 6.73262C7.13512 6.92762 7.11762 7.61762 7.11762 7.61762C7.11762 7.61762 6.43012 7.63512 6.23262 7.44012C6.03512 7.24512 4.99512 5.49512 4.99512 5.49512C4.99512 5.49512 6.74512 6.53762 6.94012 6.73262Z" fill="#C2EFDC"/>
<path d="M6 8C6.275 8 6.75 8.5 6.75 8.5C6.75 8.5 6.275 9 6 9C5.725 9 3.75 8.5 3.75 8.5C3.75 8.5 5.725 8 6 8Z" fill="#C2EFDC"/>
<path d="M6.23262 9.55974C6.42762 9.36474 7.11762 9.38224 7.11762 9.38224C7.11762 9.38224 7.13512 10.0697 6.94012 10.2672C6.74512 10.4647 4.99512 11.5047 4.99512 11.5047C4.99512 11.5047 6.03762 9.75474 6.23262 9.55974Z" fill="#C2EFDC"/>
<path d="M7.5 10.5C7.5 10.225 8 9.75 8 9.75C8 9.75 8.5 10.225 8.5 10.5C8.5 10.775 8 12.75 8 12.75C8 12.75 7.5 10.775 7.5 10.5Z" fill="#C2EFDC"/>
<path d="M9.06023 10.2672C8.86523 10.0722 8.88273 9.38224 8.88273 9.38224C8.88273 9.38224 9.57023 9.36474 9.76773 9.55974C9.96523 9.75474 11.0052 11.5047 11.0052 11.5047C11.0052 11.5047 9.25523 10.4622 9.06023 10.2672Z" fill="#C2EFDC"/>
<path d="M10 9C9.725 9 9.25 8.5 9.25 8.5C9.25 8.5 9.725 8 10 8C10.275 8 12.25 8.5 12.25 8.5C12.25 8.5 10.275 9 10 9Z" fill="#C2EFDC"/>
<path d="M9.76773 7.44012C9.57273 7.63512 8.88273 7.61762 8.88273 7.61762C8.88273 7.61762 8.86523 6.93012 9.06023 6.73262C9.25523 6.53512 11.0052 5.49512 11.0052 5.49512C11.0052 5.49512 9.96273 7.24512 9.76773 7.44012Z" fill="#C2EFDC"/>
<path d="M8 9.5C8.55228 9.5 9 9.05228 9 8.5C9 7.94772 8.55228 7.5 8 7.5C7.44772 7.5 7 7.94772 7 8.5C7 9.05228 7.44772 9.5 8 9.5Z" fill="#C2EFDC"/>
</svg>
