<svg width="92" height="123" viewBox="0 0 92 123" fill="none" xmlns="http://www.w3.org/2000/svg">
<g clip-path="url(#clip0_99_5879)">
<path d="M79.1558 78.0974C79.2273 78.023 79.2987 77.9478 79.3698 77.8727H92V46.2203V46.125V46.0297V44.3276H91.9657C91.024 19.6869 70.8048 0 46 0C21.1952 0 0.976018 19.6869 0.0343021 44.3276H0V123H51.3767V103.182H66.4909C73.4855 103.182 79.1558 97.4968 79.1558 90.4829V78.0974Z" fill="#004D4D"/>
<path d="M46 84.5627C66.324 84.5627 82.8 68.042 82.8 47.6627C82.8 27.2834 66.324 10.7627 46 10.7627C25.6759 10.7627 9.19995 27.2834 9.19995 47.6627C9.19995 68.042 25.6759 84.5627 46 84.5627Z" fill="#ACE2E4"/>
<path d="M46 73.7999C60.3962 73.7999 72.0667 62.0977 72.0667 47.6624C72.0667 33.2271 60.3962 21.5249 46 21.5249C31.6038 21.5249 19.9333 33.2271 19.9333 47.6624C19.9333 62.0977 31.6038 73.7999 46 73.7999Z" fill="#FF6F61"/>
<path d="M46.0001 63.0376C54.4684 63.0376 61.3334 56.154 61.3334 47.6626C61.3334 39.1712 54.4684 32.2876 46.0001 32.2876C37.5317 32.2876 30.6667 39.1712 30.6667 47.6626C30.6667 56.154 37.5317 63.0376 46.0001 63.0376Z" fill="#004D4D"/>
</g>
<defs>
<clipPath id="clip0_99_5879">
<rect width="92" height="123" fill="white"/>
</clipPath>
</defs>
</svg>
