<svg width="132" height="123" viewBox="0 0 132 123" fill="none" xmlns="http://www.w3.org/2000/svg">
<g clip-path="url(#clip0_99_5883)">
<path d="M11.2553 68.1592C-3.75177 53.1583 -3.75177 28.837 11.2553 13.8361C26.2624 -1.16477 50.5938 -1.16477 65.6009 13.8361L118.32 66.5334L63.9744 120.856L11.2553 68.1592Z" fill="#004D4D"/>
<path d="M91.608 76.8245C112.831 76.8245 130.036 59.6267 130.036 38.4122C130.036 17.1977 112.831 0 91.608 0C70.3848 0 53.1799 17.1977 53.1799 38.4122C53.1799 59.6267 70.3848 76.8245 91.608 76.8245Z" fill="#FF6F61"/>
<path d="M63.6731 12.0352C64.3311 12.6094 64.9741 13.2097 65.6009 13.8363L118.061 66.2751C111.171 72.8131 101.859 76.8246 91.6085 76.8246C70.3854 76.8246 53.1804 59.6268 53.1804 38.4124C53.1804 28.1985 57.1686 18.9158 63.6731 12.0352Z" fill="#87CEEB"/>
</g>
<defs>
<clipPath id="clip0_99_5883">
<rect width="132" height="123" fill="white"/>
</clipPath>
</defs>
</svg>
